<svg width="269" height="80" viewBox="0 0 269 80" fill="none" xmlns="http://www.w3.org/2000/svg">
<g clip-path="url(#clip0_871_44)">
<rect width="80" height="80" rx="16" fill="#18181B"/>
<path d="M12.5 27.5H19.5V45.5H30.5V27.5H37.5V52.5H12.5V27.5Z" fill="white"/>
<path d="M67.5 27.5L67.5 34.5L49.5 34.5L49.5 45.5L67.5 45.5L67.5 52.5L42.5 52.5L42.5 27.5L67.5 27.5Z" fill="white"/>
</g>
<path d="M257.954 18.6C257.954 18.4333 258.004 18.3 258.104 18.2C258.237 18.0667 258.387 18 258.554 18H265.654C265.82 18 265.954 18.0667 266.054 18.2C266.187 18.3 266.254 18.4333 266.254 18.6V52.4C266.254 52.5667 266.187 52.7167 266.054 52.85C265.954 52.95 265.82 53 265.654 53H258.554C258.387 53 258.237 52.95 258.104 52.85C258.004 52.7167 257.954 52.5667 257.954 52.4V50.75C257.954 50.65 257.92 50.6 257.854 50.6C257.787 50.5667 257.72 50.5833 257.654 50.65C256.32 52.4833 254.404 53.4 251.904 53.4C249.637 53.4 247.62 52.7167 245.854 51.35C244.12 49.9833 242.887 48.1167 242.154 45.75C241.62 43.95 241.354 42.0167 241.354 39.95C241.354 37.6167 241.704 35.5167 242.404 33.65C243.17 31.5833 244.387 29.9167 246.054 28.65C247.754 27.3833 249.804 26.75 252.204 26.75C254.604 26.75 256.42 27.5333 257.654 29.1C257.72 29.2 257.787 29.2333 257.854 29.2C257.92 29.1667 257.954 29.1 257.954 29V18.6ZM257.104 44.35C257.67 43.2833 257.954 41.8667 257.954 40.1C257.954 38.1667 257.637 36.6667 257.004 35.6C256.304 34.4333 255.32 33.85 254.054 33.85C252.687 33.85 251.67 34.45 251.004 35.65C250.337 36.7833 250.004 38.2667 250.004 40.1C250.004 41.8667 250.304 43.3 250.904 44.4C251.604 45.6667 252.654 46.3 254.054 46.3C255.387 46.3 256.404 45.65 257.104 44.35Z" fill="#18181B"/>
<path d="M230.462 27.7504C230.462 27.5837 230.512 27.4504 230.612 27.3504C230.746 27.2171 230.896 27.1504 231.062 27.1504H238.162C238.329 27.1504 238.462 27.2171 238.562 27.3504C238.696 27.4504 238.762 27.5837 238.762 27.7504V52.4004C238.762 52.5671 238.696 52.7171 238.562 52.8504C238.462 52.9504 238.329 53.0004 238.162 53.0004H231.062C230.896 53.0004 230.746 52.9504 230.612 52.8504C230.512 52.7171 230.462 52.5671 230.462 52.4004V50.6504C230.462 50.5504 230.429 50.4837 230.362 50.4504C230.296 50.4171 230.229 50.4504 230.162 50.5504C228.829 52.4504 226.729 53.4004 223.862 53.4004C221.329 53.4004 219.279 52.6004 217.712 51.0004C216.146 49.4004 215.362 47.1671 215.362 44.3004V27.7504C215.362 27.5837 215.412 27.4504 215.512 27.3504C215.646 27.2171 215.796 27.1504 215.962 27.1504H223.062C223.229 27.1504 223.362 27.2171 223.462 27.3504C223.596 27.4504 223.662 27.5837 223.662 27.7504V42.4004C223.662 43.5671 223.962 44.5004 224.562 45.2004C225.162 45.9004 225.979 46.2504 227.012 46.2504C227.946 46.2504 228.712 45.9671 229.312 45.4004C229.946 44.8337 230.329 44.0837 230.462 43.1504V27.7504Z" fill="#18181B"/>
<path d="M200.481 53.4C197.481 53.4 194.931 52.6 192.831 51C190.731 49.4 189.331 47.2333 188.631 44.5C188.231 43.1333 188.031 41.6333 188.031 40C188.031 38.1667 188.248 36.55 188.681 35.15C189.448 32.5167 190.865 30.4667 192.931 29C195.031 27.5 197.565 26.75 200.531 26.75C203.465 26.75 205.948 27.5 207.981 29C210.015 30.4667 211.431 32.5 212.231 35.1C212.698 36.6 212.931 38.2 212.931 39.9C212.931 41.4333 212.748 42.9 212.381 44.3C211.681 47.1 210.281 49.3167 208.181 50.95C206.081 52.5833 203.515 53.4 200.481 53.4ZM200.481 46.3C201.448 46.3 202.248 46 202.881 45.4C203.515 44.7667 203.981 43.9167 204.281 42.85C204.481 41.9833 204.581 41.0333 204.581 40C204.581 39 204.465 38.0333 204.231 37.1C203.965 36.0667 203.515 35.2667 202.881 34.7C202.248 34.1333 201.448 33.85 200.481 33.85C198.548 33.85 197.281 34.9333 196.681 37.1C196.481 37.9 196.381 38.8667 196.381 40C196.381 41.0333 196.481 41.9833 196.681 42.85C196.948 43.9167 197.398 44.7667 198.031 45.4C198.698 46 199.515 46.3 200.481 46.3Z" fill="#18181B"/>
<path d="M177.78 53C177.614 53 177.464 52.95 177.33 52.85C177.23 52.7167 177.18 52.5667 177.18 52.4V18.6C177.18 18.4333 177.23 18.3 177.33 18.2C177.464 18.0667 177.614 18 177.78 18H184.88C185.047 18 185.18 18.0667 185.28 18.2C185.414 18.3 185.48 18.4333 185.48 18.6V52.4C185.48 52.5667 185.414 52.7167 185.28 52.85C185.18 52.95 185.047 53 184.88 53H177.78Z" fill="#18181B"/>
<path d="M162.883 53.4C160.149 53.4 157.749 52.7167 155.683 51.35C153.649 49.9833 152.199 48.1 151.333 45.7C150.699 44.1 150.383 42.1833 150.383 39.95C150.383 37.7167 150.699 35.8 151.333 34.2C152.166 31.8667 153.616 30.05 155.683 28.75C157.749 27.4167 160.149 26.75 162.883 26.75C165.649 26.75 168.083 27.4333 170.183 28.8C172.283 30.1667 173.699 31.9 174.433 34C174.666 34.6 174.816 35.25 174.883 35.95C174.883 36.3167 174.699 36.5333 174.333 36.6L167.383 37.65H167.283C166.983 37.65 166.783 37.4833 166.683 37.15L166.583 36.7C166.516 36.4333 166.449 36.2 166.383 36C166.083 35.3667 165.616 34.85 164.983 34.45C164.383 34.05 163.666 33.85 162.833 33.85C161.066 33.85 159.899 34.6333 159.333 36.2C158.966 37.1333 158.783 38.4 158.783 40C158.783 41.4333 158.949 42.6833 159.283 43.75C159.916 45.45 161.099 46.3 162.833 46.3C163.699 46.3 164.449 46.0833 165.083 45.65C165.716 45.1833 166.166 44.5333 166.433 43.7C166.466 43.6333 166.483 43.5333 166.483 43.4C166.516 43.3667 166.533 43.3 166.533 43.2C166.633 42.8 166.866 42.6333 167.233 42.7L174.233 43.8C174.566 43.8667 174.733 44.05 174.733 44.35C174.733 44.85 174.633 45.4 174.433 46C173.633 48.3333 172.183 50.15 170.083 51.45C168.016 52.75 165.616 53.4 162.883 53.4Z" fill="#18181B"/>
<path d="M139.092 26.75C141.692 26.75 143.825 27.5833 145.492 29.25C147.158 30.8833 147.992 33.1167 147.992 35.95V52.4C147.992 52.5667 147.925 52.7167 147.792 52.85C147.692 52.95 147.558 53 147.392 53H140.292C140.125 53 139.975 52.95 139.842 52.85C139.742 52.7167 139.692 52.5667 139.692 52.4V37.75C139.692 36.6167 139.375 35.6833 138.742 34.95C138.108 34.2167 137.292 33.85 136.292 33.85C135.258 33.85 134.425 34.2167 133.792 34.95C133.158 35.65 132.842 36.5833 132.842 37.75V52.4C132.842 52.5667 132.775 52.7167 132.642 52.85C132.542 52.95 132.408 53 132.242 53H125.142C124.975 53 124.825 52.95 124.692 52.85C124.592 52.7167 124.542 52.5667 124.542 52.4V27.75C124.542 27.5833 124.592 27.45 124.692 27.35C124.825 27.2167 124.975 27.15 125.142 27.15H132.242C132.408 27.15 132.542 27.2167 132.642 27.35C132.775 27.45 132.842 27.5833 132.842 27.75V29.6C132.842 29.7333 132.858 29.8167 132.892 29.85C132.958 29.85 133.025 29.8 133.092 29.7C134.358 27.7333 136.358 26.75 139.092 26.75Z" fill="#18181B"/>
<path d="M113.05 27.7504C113.05 27.5837 113.1 27.4504 113.2 27.3504C113.334 27.2171 113.484 27.1504 113.65 27.1504H120.75C120.917 27.1504 121.05 27.2171 121.15 27.3504C121.284 27.4504 121.35 27.5837 121.35 27.7504V52.4004C121.35 52.5671 121.284 52.7171 121.15 52.8504C121.05 52.9504 120.917 53.0004 120.75 53.0004H113.65C113.484 53.0004 113.334 52.9504 113.2 52.8504C113.1 52.7171 113.05 52.5671 113.05 52.4004V50.6504C113.05 50.5504 113.017 50.4837 112.95 50.4504C112.884 50.4171 112.817 50.4504 112.75 50.5504C111.417 52.4504 109.317 53.4004 106.45 53.4004C103.917 53.4004 101.867 52.6004 100.3 51.0004C98.7335 49.4004 97.9502 47.1671 97.9502 44.3004V27.7504C97.9502 27.5837 98.0002 27.4504 98.1002 27.3504C98.2335 27.2171 98.3835 27.1504 98.5502 27.1504H105.65C105.817 27.1504 105.95 27.2171 106.05 27.3504C106.184 27.4504 106.25 27.5837 106.25 27.7504V42.4004C106.25 43.5671 106.55 44.5004 107.15 45.2004C107.75 45.9004 108.567 46.2504 109.6 46.2504C110.534 46.2504 111.3 45.9671 111.9 45.4004C112.534 44.8337 112.917 44.0837 113.05 43.1504V27.7504Z" fill="#18181B"/>
<defs>
<clipPath id="clip0_871_44">
<rect width="80" height="80" rx="16" fill="white"/>
</clipPath>
</defs>
</svg>
